<svg width="58" height="40" viewBox="0 0 58 40" fill="none" xmlns="http://www.w3.org/2000/svg">
<path fill-rule="evenodd" clip-rule="evenodd" d="M4.49701 40C6.98063 40 8.994 37.9907 8.994 35.5122H48.4894C48.4894 37.9907 50.5028 40 52.9864 40C55.47 40 57.4834 37.9907 57.4834 35.5122V20.9283C57.4834 19.2487 56.9405 17.6139 55.9353 16.2667L54.2802 14.0487H55.1016C56.3974 14.0487 57.4479 13.0004 57.4479 11.7073C57.4479 10.4141 56.3974 9.36583 55.1016 9.36583H50.7858L46.1424 3.14328C44.6666 1.16544 42.3408 0 39.8698 0H17.6137C15.1426 0 12.8169 1.16544 11.341 3.14328L6.69767 9.36583H2.34626C1.05045 9.36583 0 10.4141 0 11.7073C0 13.0004 1.05045 14.0487 2.34626 14.0487H3.20323L1.54819 16.2667C0.542953 17.6139 0 19.2487 0 20.9283V35.5122C0 37.9907 2.01338 40 4.49701 40ZM11.6969 20.874C11.0175 21.9752 11.3613 23.4175 12.4648 24.0954C17.3211 27.0789 22.916 28.6829 28.7417 28.6829C34.571 28.6829 40.1694 27.077 45.0275 24.0899C46.1308 23.4116 46.4742 21.9692 45.7944 20.8683C45.1147 19.7672 43.6694 19.4246 42.5662 20.103C38.4427 22.6382 33.6955 24 28.7417 24C23.791 24 19.0465 22.6399 14.9249 20.1076C13.8215 19.4297 12.3762 19.7728 11.6969 20.874Z" fill="#3F51B5"/>
</svg>
